<svg width="1140" height="576" viewBox="0 0 1140 576" fill="none" xmlns="http://www.w3.org/2000/svg">
<path fill-rule="evenodd" clip-rule="evenodd" d="M644.932 111.863C649.383 142.902 656.151 170.386 664.604 192.458C729.217 220.203 799.571 206.795 830.854 157.207C854.427 119.839 849.903 71.2935 823.618 29.7958C1011.23 79.2439 1140 181.221 1140 298.996C1140 395.09 1054.28 480.667 920.812 535.777C949.087 486.789 952.959 437.157 926.431 412.074C893.198 380.652 824.167 399.021 768.133 452.638C761.913 432.279 750.359 416.793 733.786 409.215C688.98 388.73 624.456 433.806 589.667 509.896C579.495 532.144 572.991 554.581 570 575.705V575.709C567.009 554.585 560.505 532.148 550.333 509.9C515.544 433.81 451.02 388.734 406.214 409.219C389.641 416.797 378.087 432.283 371.867 452.642C315.833 399.025 246.802 380.656 213.569 412.078C187.041 437.161 190.913 486.793 219.188 535.781C85.7223 480.671 0 395.094 0 299C0 181.225 128.768 79.2479 316.382 29.7999C290.097 71.2976 285.573 119.843 309.146 157.211C341.011 207.722 413.416 220.694 478.997 190.87C487.17 169.073 493.724 142.161 498.067 111.863C498.193 109.682 498.49 107.534 498.95 105.427C502.212 80.5259 504 53.4853 504 25.2221C504 16.6951 503.837 8.2793 503.521 0C516.125 16.2635 527.719 35.7062 537.246 57.4634C538.343 59.9693 539.399 62.4746 540.414 64.9771C549.439 61.9223 559.455 60.2221 570 60.2221C570.501 60.2221 571.002 60.2259 571.501 60.2336C571.999 60.2259 572.499 60.2221 573 60.2221C583.545 60.2221 593.561 61.9223 602.586 64.9771C603.601 62.4746 604.657 59.9693 605.754 57.4634C615.281 35.7062 626.875 16.2635 639.479 0C639.163 8.2793 639 16.6951 639 25.2221C639 53.4853 640.788 80.526 644.05 105.427C644.51 107.534 644.807 109.682 644.932 111.863Z" fill="#FE1414"/>
</svg>
